<?xml version="1.0" encoding="UTF-8" standalone="no"?><!-- Created with Inkscape (http://www.inkscape.org/) -->

<svg height="512" id="svg1" version="1.1" viewBox="0 0 512 512" width="512" xmlns="http://www.w3.org/2000/svg" xml:space="preserve"><defs
     id="defs1" />
    <g style="fill:#106d20;fill-opacity:1" id="layer1" transform="matrix(0.93940293,0,0,0.95799174,1.5118321,0.28706401)"><path
       style="fill:#ffffff;stroke-width:0.25299"
       d="m 199.36935,367.13566 q -8.43081,0 -14.43465,-5.88729 -6.00384,-5.88739 -6.00384,-14.15463 V 206.80023 q 0,-8.26723 6.00384,-14.15462 6.00384,-5.88729 14.43465,-5.88729 h 10.2193 v -10.02096 q 0,-4.25895 2.93808,-7.13991 2.93798,-2.88105 7.28121,-2.88105 4.34314,0 7.28122,2.88105 2.93798,2.88096 2.93798,7.13991 v 10.02096 h 81.75407 v -10.02096 q 0,-4.25895 2.93808,-7.13991 2.93798,-2.88105 7.28122,-2.88105 4.34313,0 7.28121,2.88105 2.93798,2.88096 2.93798,7.13991 v 10.02096 h 10.2193 q 8.43091,0 14.43465,5.88729 6.00383,5.88739 6.00383,14.15462 v 140.29351 q 0,8.26724 -6.00383,14.15463 -6.00374,5.88729 -14.43465,5.88729 z m 0,-20.04192 H 342.439 V 246.88407 H 199.36935 Z m 71.53487,-60.12584 q -4.34323,0 -7.28121,-2.88096 -2.93808,-2.88105 -2.93808,-7.14 0,-4.25884 2.93808,-7.1399 2.93798,-2.88106 7.28121,-2.88106 4.34314,0 7.28122,2.88106 2.93798,2.88106 2.93798,7.1399 0,4.25895 -2.93798,7.14 -2.93808,2.88096 -7.28122,2.88096 z m -40.87708,0 q -4.34313,0 -7.28121,-2.88096 -2.93799,-2.88105 -2.93799,-7.14 0,-4.25884 2.93799,-7.1399 2.93808,-2.88106 7.28121,-2.88106 4.34323,0 7.28122,2.88106 2.93808,2.88106 2.93808,7.1399 0,4.25895 -2.93808,7.14 -2.93799,2.88096 -7.28122,2.88096 z m 81.75407,0 q -4.34314,0 -7.28121,-2.88096 -2.93808,-2.88105 -2.93808,-7.14 0,-4.25884 2.93808,-7.1399 2.93807,-2.88106 7.28121,-2.88106 4.34323,0 7.28122,2.88106 2.93808,2.88106 2.93808,7.1399 0,4.25895 -2.93808,7.14 -2.93799,2.88096 -7.28122,2.88096 z m -40.87699,40.08393 q -4.34323,0 -7.28121,-2.88105 -2.93808,-2.88106 -2.93808,-7.13991 0,-4.25894 2.93808,-7.14 2.93798,-2.88096 7.28121,-2.88096 4.34314,0 7.28122,2.88096 2.93798,2.88106 2.93798,7.14 0,4.25885 -2.93798,7.13991 -2.93808,2.88105 -7.28122,2.88105 z m -40.87708,0 q -4.34313,0 -7.28121,-2.88105 -2.93799,-2.88106 -2.93799,-7.13991 0,-4.25894 2.93799,-7.14 2.93808,-2.88096 7.28121,-2.88096 4.34323,0 7.28122,2.88096 2.93808,2.88106 2.93808,7.14 0,4.25885 -2.93808,7.13991 -2.93799,2.88105 -7.28122,2.88105 z m 81.75407,0 q -4.34314,0 -7.28121,-2.88105 -2.93808,-2.88106 -2.93808,-7.13991 0,-4.25894 2.93808,-7.14 2.93807,-2.88096 7.28121,-2.88096 4.34323,0 7.28122,2.88096 2.93808,2.88106 2.93808,7.14 0,4.25885 -2.93808,7.13991 -2.93799,2.88105 -7.28122,2.88105 z"
       id="path1" /></g></svg>
