<?xml version="1.0" encoding="UTF-8" standalone="no"?>
<svg height="512" id="svg1" version="1.1" viewBox="0 0 512 512" width="512" xmlns="http://www.w3.org/2000/svg" xml:space="preserve"><defs
   id="defs1" />
    <path style="fill:#ffffff;stroke-width:0.265"
        d="m 181.8,362 q -8.745,0 -14.9725,-6.2275 Q 160.6,349.545 160.6,340.8 V 192.4 q 0,-8.745 6.2275,-14.9725 Q 173.055,171.2 181.8,171.2 h 10.6 v -10.6 q 0,-4.505 3.0475,-7.5525 Q 198.495,150 203,150 q 4.505,0 7.5525,3.0475 3.0475,3.0475 3.0475,7.5525 v 10.6 h 84.8 v -10.6 q 0,-4.505 3.0475,-7.5525 Q 304.495,150 309,150 q 4.505,0 7.5525,3.0475 3.0475,3.0475 3.0475,7.5525 v 10.6 h 10.6 q 8.745,0 14.9725,6.2275 Q 351.4,183.655 351.4,192.4 v 148.4 q 0,8.745 -6.2275,14.9725 Q 338.945,362 330.2,362 Z m 0,-21.2 h 148.4 v -106 H 181.8 Z M 256,277.2 q -4.505,0 -7.5525,-3.0475 Q 245.4,271.105 245.4,266.6 q 0,-4.505 3.0475,-7.5525 Q 251.495,256 256,256 q 4.505,0 7.5525,3.0475 3.0475,3.0475 3.0475,7.5525 0,4.505 -3.0475,7.5525 Q 260.505,277.2 256,277.2 Z m -42.4,0 q -4.505,0 -7.5525,-3.0475 Q 203,271.105 203,266.6 q 0,-4.505 3.0475,-7.5525 Q 209.095,256 213.6,256 q 4.505,0 7.5525,3.0475 3.0475,3.0475 3.0475,7.5525 0,4.505 -3.0475,7.5525 Q 218.105,277.2 213.6,277.2 Z m 84.8,0 q -4.505,0 -7.5525,-3.0475 Q 287.8,271.105 287.8,266.6 q 0,-4.505 3.0475,-7.5525 Q 293.895,256 298.4,256 q 4.505,0 7.5525,3.0475 Q 309,262.095 309,266.6 q 0,4.505 -3.0475,7.5525 Q 302.905,277.2 298.4,277.2 Z M 256,319.6 q -4.505,0 -7.5525,-3.0475 Q 245.4,313.505 245.4,309 q 0,-4.505 3.0475,-7.5525 Q 251.495,298.4 256,298.4 q 4.505,0 7.5525,3.0475 3.0475,3.0475 3.0475,7.5525 0,4.505 -3.0475,7.5525 Q 260.505,319.6 256,319.6 Z m -42.4,0 q -4.505,0 -7.5525,-3.0475 Q 203,313.505 203,309 q 0,-4.505 3.0475,-7.5525 3.0475,-3.0475 7.5525,-3.0475 4.505,0 7.5525,3.0475 3.0475,3.0475 3.0475,7.5525 0,4.505 -3.0475,7.5525 Q 218.105,319.6 213.6,319.6 Z m 84.8,0 q -4.505,0 -7.5525,-3.0475 Q 287.8,313.505 287.8,309 q 0,-4.505 3.0475,-7.5525 3.0475,-3.0475 7.5525,-3.0475 4.505,0 7.5525,3.0475 Q 309,304.495 309,309 q 0,4.505 -3.0475,7.5525 Q 302.905,319.6 298.4,319.6 Z"
        id="path1" /></svg>
